<svg width="18" height="15" viewBox="0 0 18 15" fill="none" xmlns="http://www.w3.org/2000/svg">
<path d="M1.75 0.5H11.75V11.5H1.75V0.5Z" fill="#FBC387"/>
<path d="M4.75 3.75H0.75M2 0.75H12V11.75H3.5" stroke="#212121" stroke-width="1.5" stroke-linecap="round" stroke-linejoin="round"/>
<path d="M17 11.75H12V3.75H14.378C15.908 3.75 17 5.02 17 6.563V11.75Z" fill="white" stroke="#212121" stroke-width="1.5" stroke-linecap="round" stroke-linejoin="round"/>
<path d="M12 13.75C13.1046 13.75 14 12.8546 14 11.75C14 10.6454 13.1046 9.75 12 9.75C10.8954 9.75 10 10.6454 10 11.75C10 12.8546 10.8954 13.75 12 13.75Z" fill="white" stroke="#212121" stroke-width="1.5"/>
<path d="M4.5 13.75C5.60457 13.75 6.5 12.8546 6.5 11.75C6.5 10.6454 5.60457 9.75 4.5 9.75C3.39543 9.75 2.5 10.6454 2.5 11.75C2.5 12.8546 3.39543 13.75 4.5 13.75Z" fill="white" stroke="#212121" stroke-width="1.5"/>
<path d="M1.75 6.75H4.75" stroke="#212121" stroke-width="1.5" stroke-linecap="round" stroke-linejoin="round"/>
</svg>
